<svg xmlns="http://www.w3.org/2000/svg" viewBox="0 0 800 500" width="100%" height="100%">
  <defs>
    <linearGradient id="sky2" x1="0" y1="0" x2="0" y2="1">
      <stop offset="0%" stop-color="#0a1e14"/>
      <stop offset="100%" stop-color="#163325"/>
    </linearGradient>
    <linearGradient id="bldg2" x1="0" y1="0" x2="0" y2="1">
      <stop offset="0%" stop-color="#1a3628"/>
      <stop offset="100%" stop-color="#0c1d14"/>
    </linearGradient>
    <linearGradient id="gold2" x1="0" y1="0" x2="1" y2="0">
      <stop offset="0%" stop-color="#d4a843"/>
      <stop offset="100%" stop-color="#f0d080"/>
    </linearGradient>
    <filter id="glow2">
      <feGaussianBlur stdDeviation="4" result="blur"/>
      <feMerge><feMergeNode in="blur"/><feMergeNode in="SourceGraphic"/></feMerge>
    </filter>
  </defs>

  <!-- Background sky -->
  <rect width="800" height="500" fill="url(#sky2)"/>

  <!-- Moon glow -->
  <circle cx="680" cy="60" r="25" fill="rgba(193,154,79,0.08)"/>
  <circle cx="680" cy="60" r="16" fill="rgba(193,154,79,0.12)"/>
  <circle cx="680" cy="60" r="10" fill="rgba(255,230,140,0.15)"/>

  <!-- Stars -->
  <circle cx="80" cy="50" r="1.5" fill="#c19a4f" opacity="0.4"/>
  <circle cx="200" cy="30" r="1" fill="#fff" opacity="0.2"/>
  <circle cx="400" cy="20" r="1.5" fill="#c19a4f" opacity="0.3"/>
  <circle cx="550" cy="45" r="1" fill="#fff" opacity="0.15"/>

  <!-- Ground -->
  <rect x="0" y="420" width="800" height="80" fill="#09180e"/>
  <rect x="0" y="428" width="800" height="30" fill="#0c1e12"/>

  <!-- Road markings -->
  <rect x="100" y="442" width="70" height="4" fill="rgba(193,154,79,0.15)" rx="2"/>
  <rect x="320" y="442" width="70" height="4" fill="rgba(193,154,79,0.15)" rx="2"/>
  <rect x="540" y="442" width="70" height="4" fill="rgba(193,154,79,0.15)" rx="2"/>

  <!-- Left tree cluster -->
  <ellipse cx="50" cy="410" rx="30" ry="50" fill="#113520"/>
  <ellipse cx="50" cy="378" rx="24" ry="40" fill="#184a2c"/>
  <rect x="44" y="412" width="12" height="18" fill="#09200e"/>
  <ellipse cx="100" cy="418" rx="24" ry="40" fill="#113520"/>
  <ellipse cx="100" cy="390" rx="18" ry="32" fill="#184a2c"/>
  <rect x="94" y="418" width="12" height="12" fill="#09200e"/>

  <!-- Main building - wide low-rise luxury villa style -->
  <!-- Left wing -->
  <rect x="110" y="200" width="200" height="230" fill="url(#bldg2)" rx="4"/>
  <rect x="110" y="200" width="200" height="6" fill="url(#gold2)"/>
  <!-- Windows left wing -->
  <g fill="rgba(193,154,79,0.12)" stroke="rgba(193,154,79,0.28)" stroke-width="0.5">
    <rect x="125" y="220" width="30" height="22" rx="2"/>
    <rect x="165" y="220" width="30" height="22" rx="2"/>
    <rect x="205" y="220" width="30" height="22" rx="2"/>
    <rect x="245" y="220" width="30" height="22" rx="2"/>
    <rect x="285" y="220" width="12" height="22" rx="2"/>
    <rect x="125" y="252" width="30" height="22" rx="2" fill="rgba(255,230,100,0.25)"/>
    <rect x="165" y="252" width="30" height="22" rx="2"/>
    <rect x="205" y="252" width="30" height="22" rx="2" fill="rgba(255,230,100,0.2)"/>
    <rect x="245" y="252" width="30" height="22" rx="2"/>
    <rect x="285" y="252" width="12" height="22" rx="2"/>
    <rect x="125" y="284" width="30" height="22" rx="2"/>
    <rect x="165" y="284" width="30" height="22" rx="2" fill="rgba(255,230,100,0.3)"/>
    <rect x="205" y="284" width="30" height="22" rx="2"/>
    <rect x="245" y="284" width="30" height="22" rx="2"/>
    <rect x="285" y="284" width="12" height="22" rx="2"/>
    <rect x="125" y="316" width="30" height="22" rx="2"/>
    <rect x="165" y="316" width="30" height="22" rx="2"/>
    <rect x="205" y="316" width="30" height="22" rx="2" fill="rgba(255,230,100,0.25)"/>
    <rect x="245" y="316" width="30" height="22" rx="2"/>
    <rect x="285" y="316" width="12" height="22" rx="2"/>
    <rect x="125" y="348" width="30" height="22" rx="2" fill="rgba(255,230,100,0.3)"/>
    <rect x="165" y="348" width="30" height="22" rx="2"/>
    <rect x="205" y="348" width="30" height="22" rx="2"/>
    <rect x="245" y="348" width="30" height="22" rx="2" fill="rgba(255,230,100,0.2)"/>
    <rect x="285" y="348" width="12" height="22" rx="2"/>
  </g>

  <!-- Center rise tower -->
  <rect x="300" y="120" width="200" height="310" fill="url(#bldg2)" rx="4"/>
  <rect x="300" y="120" width="200" height="6" fill="url(#gold2)"/>
  <!-- Windows center tower -->
  <g fill="rgba(193,154,79,0.12)" stroke="rgba(193,154,79,0.28)" stroke-width="0.5">
    <rect x="315" y="140" width="30" height="22" rx="2"/>
    <rect x="353" y="140" width="30" height="22" rx="2" fill="rgba(255,230,100,0.25)"/>
    <rect x="391" y="140" width="30" height="22" rx="2"/>
    <rect x="429" y="140" width="30" height="22" rx="2"/>
    <rect x="467" y="140" width="18" height="22" rx="2"/>
    <rect x="315" y="172" width="30" height="22" rx="2"/>
    <rect x="353" y="172" width="30" height="22" rx="2"/>
    <rect x="391" y="172" width="30" height="22" rx="2" fill="rgba(255,230,100,0.3)"/>
    <rect x="429" y="172" width="30" height="22" rx="2"/>
    <rect x="467" y="172" width="18" height="22" rx="2" fill="rgba(255,230,100,0.2)"/>
    <rect x="315" y="204" width="30" height="22" rx="2" fill="rgba(255,230,100,0.2)"/>
    <rect x="353" y="204" width="30" height="22" rx="2"/>
    <rect x="391" y="204" width="30" height="22" rx="2"/>
    <rect x="429" y="204" width="30" height="22" rx="2" fill="rgba(255,230,100,0.25)"/>
    <rect x="467" y="204" width="18" height="22" rx="2"/>
    <rect x="315" y="236" width="30" height="22" rx="2"/>
    <rect x="353" y="236" width="30" height="22" rx="2" fill="rgba(255,230,100,0.3)"/>
    <rect x="391" y="236" width="30" height="22" rx="2"/>
    <rect x="429" y="236" width="30" height="22" rx="2"/>
    <rect x="467" y="236" width="18" height="22" rx="2"/>
    <rect x="315" y="268" width="30" height="22" rx="2"/>
    <rect x="353" y="268" width="30" height="22" rx="2"/>
    <rect x="391" y="268" width="30" height="22" rx="2" fill="rgba(255,230,100,0.2)"/>
    <rect x="429" y="268" width="30" height="22" rx="2"/>
    <rect x="467" y="268" width="18" height="22" rx="2" fill="rgba(255,230,100,0.3)"/>
    <rect x="315" y="300" width="30" height="22" rx="2" fill="rgba(255,230,100,0.25)"/>
    <rect x="353" y="300" width="30" height="22" rx="2"/>
    <rect x="391" y="300" width="30" height="22" rx="2"/>
    <rect x="429" y="300" width="30" height="22" rx="2" fill="rgba(255,230,100,0.2)"/>
    <rect x="467" y="300" width="18" height="22" rx="2"/>
    <rect x="315" y="332" width="30" height="22" rx="2"/>
    <rect x="353" y="332" width="30" height="22" rx="2" fill="rgba(255,230,100,0.3)"/>
    <rect x="391" y="332" width="30" height="22" rx="2"/>
    <rect x="429" y="332" width="30" height="22" rx="2"/>
    <rect x="467" y="332" width="18" height="22" rx="2" fill="rgba(255,230,100,0.2)"/>
    <rect x="315" y="364" width="30" height="22" rx="2"/>
    <rect x="353" y="364" width="30" height="22" rx="2"/>
    <rect x="391" y="364" width="30" height="22" rx="2" fill="rgba(255,230,100,0.25)"/>
    <rect x="429" y="364" width="30" height="22" rx="2"/>
    <rect x="467" y="364" width="18" height="22" rx="2"/>
  </g>

  <!-- Right wing -->
  <rect x="490" y="210" width="190" height="220" fill="url(#bldg2)" rx="4"/>
  <rect x="490" y="210" width="190" height="6" fill="url(#gold2)"/>
  <g fill="rgba(193,154,79,0.12)" stroke="rgba(193,154,79,0.28)" stroke-width="0.5">
    <rect x="505" y="230" width="28" height="20" rx="2"/>
    <rect x="541" y="230" width="28" height="20" rx="2" fill="rgba(255,230,100,0.25)"/>
    <rect x="577" y="230" width="28" height="20" rx="2"/>
    <rect x="613" y="230" width="28" height="20" rx="2"/>
    <rect x="649" y="230" width="18" height="20" rx="2"/>
    <rect x="505" y="260" width="28" height="20" rx="2" fill="rgba(255,230,100,0.3)"/>
    <rect x="541" y="260" width="28" height="20" rx="2"/>
    <rect x="577" y="260" width="28" height="20" rx="2"/>
    <rect x="613" y="260" width="28" height="20" rx="2" fill="rgba(255,230,100,0.2)"/>
    <rect x="649" y="260" width="18" height="20" rx="2"/>
    <rect x="505" y="290" width="28" height="20" rx="2"/>
    <rect x="541" y="290" width="28" height="20" rx="2" fill="rgba(255,230,100,0.2)"/>
    <rect x="577" y="290" width="28" height="20" rx="2"/>
    <rect x="613" y="290" width="28" height="20" rx="2"/>
    <rect x="649" y="290" width="18" height="20" rx="2" fill="rgba(255,230,100,0.3)"/>
    <rect x="505" y="320" width="28" height="20" rx="2"/>
    <rect x="541" y="320" width="28" height="20" rx="2"/>
    <rect x="577" y="320" width="28" height="20" rx="2" fill="rgba(255,230,100,0.25)"/>
    <rect x="613" y="320" width="28" height="20" rx="2"/>
    <rect x="649" y="320" width="18" height="20" rx="2"/>
    <rect x="505" y="350" width="28" height="20" rx="2" fill="rgba(255,230,100,0.2)"/>
    <rect x="541" y="350" width="28" height="20" rx="2"/>
    <rect x="577" y="350" width="28" height="20" rx="2"/>
    <rect x="613" y="350" width="28" height="20" rx="2" fill="rgba(255,230,100,0.3)"/>
    <rect x="649" y="350" width="18" height="20" rx="2"/>
  </g>

  <!-- Entrance gate structure -->
  <rect x="310" y="390" width="180" height="40" fill="#0c1a10"/>
  <rect x="310" y="388" width="180" height="4" fill="url(#gold2)"/>
  <!-- Gate pillars -->
  <rect x="306" y="360" width="26" height="70" fill="#182c1e" rx="2"/>
  <rect x="468" y="360" width="26" height="70" fill="#182c1e" rx="2"/>
  <!-- Pillar caps with glow -->
  <rect x="300" y="354" width="38" height="10" fill="#c19a4f" rx="3"/>
  <rect x="462" y="354" width="38" height="10" fill="#c19a4f" rx="3"/>
  <circle cx="319" cy="354" r="6" fill="rgba(193,154,79,0.3)" filter="url(#glow2)"/>
  <circle cx="481" cy="354" r="6" fill="rgba(193,154,79,0.3)" filter="url(#glow2)"/>
  <!-- Signage board -->
  <rect x="340" y="398" width="120" height="24" fill="#0a1810" rx="2" stroke="#c19a4f" stroke-width="1"/>
  <text x="400" y="414" font-family="'Outfit', sans-serif" font-size="10" font-weight="700" fill="#c19a4f" text-anchor="middle" letter-spacing="1.5">AMOLIK SANKALP</text>

  <!-- Right tree cluster -->
  <ellipse cx="740" cy="410" rx="30" ry="50" fill="#113520"/>
  <ellipse cx="740" cy="378" rx="24" ry="40" fill="#184a2c"/>
  <rect x="734" y="412" width="12" height="18" fill="#09200e"/>
  <ellipse cx="790" cy="418" rx="24" ry="40" fill="#113520"/>
  <ellipse cx="790" cy="390" rx="18" ry="32" fill="#184a2c"/>
  <rect x="784" y="418" width="12" height="12" fill="#09200e"/>

  <!-- Foreground garden lawn -->
  <ellipse cx="400" cy="428" rx="160" ry="14" fill="#0e2a18" opacity="0.6"/>

  <!-- Project label top-left -->
  <text x="30" y="38" font-family="'Outfit', sans-serif" font-size="14" font-weight="800" fill="#c19a4f" letter-spacing="2" opacity="0.7">AMOLIK SANKALP</text>
  <text x="30" y="55" font-family="'Inter', sans-serif" font-size="10" fill="#668276" letter-spacing="1">SECTOR 85, FARIDABAD</text>
</svg>
