<svg xmlns="http://www.w3.org/2000/svg" viewBox="0 0 600 400" width="100%" height="100%">
  <defs>
    <pattern id="grid" width="20" height="20" patternUnits="userSpaceOnUse">
      <path d="M 20 0 L 0 0 0 20" fill="none" stroke="rgba(193, 154, 79, 0.03)" stroke-width="1"/>
    </pattern>
  </defs>
  
  <rect width="600" height="400" fill="#0b1310"/>
  <rect width="600" height="400" fill="url(#grid)"/>
  
  <rect x="15" y="15" width="570" height="370" fill="none" stroke="rgba(193, 154, 79, 0.15)" stroke-width="1.5" stroke-dasharray="8 4"/>
  <rect x="25" y="25" width="550" height="350" fill="none" stroke="#14241e" stroke-width="1"/>
  <g id="layout-plots" transform="translate(50, 90)">
    <rect x="0" y="0" width="80" height="50" rx="4" fill="#2d1e0d" stroke="rgba(193, 154, 79, 0.2)" stroke-width="1"/>
    <text x="40" y="30" font-family="'Inter', sans-serif" font-size="11" font-weight="600" fill="rgba(255, 255, 255, 0.3)" text-anchor="middle">B-201</text>
    <rect x="100" y="0" width="80" height="50" rx="4" fill="#1b3b2b" stroke="rgba(193, 154, 79, 0.2)" stroke-width="1"/>
    <text x="140" y="30" font-family="'Inter', sans-serif" font-size="11" font-weight="600" fill="rgba(255, 255, 255, 0.3)" text-anchor="middle">B-202</text>
    <rect x="200" y="0" width="80" height="50" rx="4" fill="#2d1e0d" stroke="rgba(193, 154, 79, 0.2)" stroke-width="1"/>
    <text x="240" y="30" font-family="'Inter', sans-serif" font-size="11" font-weight="600" fill="rgba(255, 255, 255, 0.3)" text-anchor="middle">B-203</text>
    <rect x="300" y="0" width="80" height="50" rx="4" fill="#1b3b2b" stroke="rgba(193, 154, 79, 0.2)" stroke-width="1"/>
    <text x="340" y="30" font-family="'Inter', sans-serif" font-size="11" font-weight="600" fill="rgba(255, 255, 255, 0.3)" text-anchor="middle">B-204</text>
    <rect x="400" y="0" width="80" height="50" rx="4" fill="#2d1e0d" stroke="rgba(193, 154, 79, 0.2)" stroke-width="1"/>
    <text x="440" y="30" font-family="'Inter', sans-serif" font-size="11" font-weight="600" fill="rgba(255, 255, 255, 0.3)" text-anchor="middle">B-205</text>
    <rect x="0" y="80" width="80" height="50" rx="4" fill="#2d1e0d" stroke="rgba(193, 154, 79, 0.2)" stroke-width="1"/>
    <text x="40" y="110" font-family="'Inter', sans-serif" font-size="11" font-weight="600" fill="rgba(255, 255, 255, 0.3)" text-anchor="middle">B-211</text>
    <rect x="100" y="80" width="80" height="50" rx="4" fill="#1b3b2b" stroke="rgba(193, 154, 79, 0.2)" stroke-width="1"/>
    <text x="140" y="110" font-family="'Inter', sans-serif" font-size="11" font-weight="600" fill="rgba(255, 255, 255, 0.3)" text-anchor="middle">B-212</text>
    <rect x="200" y="80" width="80" height="50" rx="4" fill="#2d1e0d" stroke="rgba(193, 154, 79, 0.2)" stroke-width="1"/>
    <text x="240" y="110" font-family="'Inter', sans-serif" font-size="11" font-weight="600" fill="rgba(255, 255, 255, 0.3)" text-anchor="middle">B-213</text>
    <rect x="300" y="80" width="80" height="50" rx="4" fill="#1b3b2b" stroke="rgba(193, 154, 79, 0.2)" stroke-width="1"/>
    <text x="340" y="110" font-family="'Inter', sans-serif" font-size="11" font-weight="600" fill="rgba(255, 255, 255, 0.3)" text-anchor="middle">B-214</text>
    <rect x="400" y="80" width="80" height="50" rx="4" fill="#2d1e0d" stroke="rgba(193, 154, 79, 0.2)" stroke-width="1"/>
    <text x="440" y="110" font-family="'Inter', sans-serif" font-size="11" font-weight="600" fill="rgba(255, 255, 255, 0.3)" text-anchor="middle">B-215</text>
    <rect x="0" y="160" width="80" height="50" rx="4" fill="#2d1e0d" stroke="rgba(193, 154, 79, 0.2)" stroke-width="1"/>
    <text x="40" y="190" font-family="'Inter', sans-serif" font-size="11" font-weight="600" fill="rgba(255, 255, 255, 0.3)" text-anchor="middle">B-221</text>
    <rect x="100" y="160" width="80" height="50" rx="4" fill="#1b3b2b" stroke="rgba(193, 154, 79, 0.2)" stroke-width="1"/>
    <text x="140" y="190" font-family="'Inter', sans-serif" font-size="11" font-weight="600" fill="rgba(255, 255, 255, 0.3)" text-anchor="middle">B-222</text>
    <rect x="200" y="160" width="80" height="50" rx="4" fill="#2d1e0d" stroke="rgba(193, 154, 79, 0.2)" stroke-width="1"/>
    <text x="240" y="190" font-family="'Inter', sans-serif" font-size="11" font-weight="600" fill="rgba(255, 255, 255, 0.3)" text-anchor="middle">B-223</text>
    <rect x="300" y="160" width="80" height="50" rx="4" fill="#1b3b2b" stroke="rgba(193, 154, 79, 0.2)" stroke-width="1"/>
    <text x="340" y="190" font-family="'Inter', sans-serif" font-size="11" font-weight="600" fill="rgba(255, 255, 255, 0.3)" text-anchor="middle">B-224</text>
    <rect x="400" y="160" width="80" height="50" rx="4" fill="#2d1e0d" stroke="rgba(193, 154, 79, 0.2)" stroke-width="1"/>
    <text x="440" y="190" font-family="'Inter', sans-serif" font-size="11" font-weight="600" fill="rgba(255, 255, 255, 0.3)" text-anchor="middle">B-225</text>
    <rect x="-10" y="60" width="510" height="15" fill="rgba(193, 154, 79, 0.05)"/>
    <text x="245" y="71" font-family="'Inter', sans-serif" font-size="9" fill="rgba(193, 154, 79, 0.3)" font-weight="600" letter-spacing="2">15M WIDE AVENUE ROAD</text>
  </g>

  <text x="35" y="48" font-family="'Outfit', sans-serif" font-size="16" font-weight="800" fill="#c19a4f" letter-spacing="1.5">BPTP B BLOCK</text>
  <text x="35" y="65" font-family="'Inter', sans-serif" font-size="10" font-weight="500" fill="#668276">Sector 85, Faridabad &bull; PLOTTED LAYOUT</text>
  
  <g transform="translate(350, 38)">
    <circle cx="10" cy="10" r="4" fill="#1b3b2b" stroke="#c19a4f" stroke-width="1"/>
    <text x="20" y="13" font-family="'Inter', sans-serif" font-size="9" fill="#93b0a2">Available</text>
    
    <circle cx="85" cy="10" r="4" fill="#2d1e0d" stroke="rgba(193, 154, 79, 0.6)" stroke-width="1"/>
    <text x="95" y="13" font-family="'Inter', sans-serif" font-size="9" fill="#93b0a2">Registry Open</text>
    
    <circle cx="170" cy="10" r="4" fill="#172721" stroke="rgba(255, 255, 255, 0.08)" stroke-width="1"/>
    <text x="180" y="13" font-family="'Inter', sans-serif" font-size="9" fill="#93b0a2">Sold Out</text>
  </g>

  <g transform="translate(540, 48)" opacity="0.6">
    <circle cx="0" cy="0" r="14" fill="none" stroke="#c19a4f" stroke-width="1" stroke-dasharray="2 2"/>
    <line x1="0" y1="-18" x2="0" y2="18" stroke="#c19a4f" stroke-width="1"/>
    <line x1="-18" y1="0" x2="18" y2="0" stroke="#c19a4f" stroke-width="1"/>
    <polygon points="0,-18 -4,-6 4,-6" fill="#c19a4f"/>
    <text x="0" y="-22" font-family="'Outfit', sans-serif" font-size="8" font-weight="800" fill="#c19a4f" text-anchor="middle">N</text>
  </g>
</svg>
