<svg xmlns="http://www.w3.org/2000/svg" viewBox="0 0 600 400" width="100%" height="100%">
  <defs>
    <pattern id="grid" width="20" height="20" patternUnits="userSpaceOnUse">
      <path d="M 20 0 L 0 0 0 20" fill="none" stroke="rgba(193, 154, 79, 0.03)" stroke-width="1"/>
    </pattern>
  </defs>
  
  <rect width="600" height="400" fill="#0b1310"/>
  <rect width="600" height="400" fill="url(#grid)"/>
  
  <rect x="15" y="15" width="570" height="370" fill="none" stroke="rgba(193, 154, 79, 0.15)" stroke-width="1.5" stroke-dasharray="8 4"/>
  
  <rect x="25" y="25" width="550" height="350" fill="none" stroke="#14241e" stroke-width="1"/>

  <g id="layout-plots" transform="translate(45, 80)">
    <rect x="0" y="0" width="60" height="40" rx="3" fill="#172721" stroke="rgba(255, 255, 255, 0.05)" stroke-width="1"/>
    <text x="30" y="24" font-family="'Inter', sans-serif" font-size="10" font-weight="600" fill="rgba(255, 255, 255, 0.2)" text-anchor="middle">P-101</text>
    <rect x="80" y="0" width="60" height="40" rx="3" fill="#172721" stroke="rgba(255, 255, 255, 0.05)" stroke-width="1"/>
    <text x="110" y="24" font-family="'Inter', sans-serif" font-size="10" font-weight="600" fill="rgba(255, 255, 255, 0.2)" text-anchor="middle">P-102</text>
    <rect x="160" y="0" width="60" height="40" rx="3" fill="#172721" stroke="rgba(255, 255, 255, 0.05)" stroke-width="1"/>
    <text x="190" y="24" font-family="'Inter', sans-serif" font-size="10" font-weight="600" fill="rgba(255, 255, 255, 0.2)" text-anchor="middle">P-103</text>
    <rect x="240" y="0" width="60" height="40" rx="3" fill="#172721" stroke="rgba(255, 255, 255, 0.05)" stroke-width="1"/>
    <text x="270" y="24" font-family="'Inter', sans-serif" font-size="10" font-weight="600" fill="rgba(255, 255, 255, 0.2)" text-anchor="middle">P-104</text>
    <rect x="320" y="0" width="60" height="40" rx="3" fill="#172721" stroke="rgba(255, 255, 255, 0.05)" stroke-width="1"/>
    <text x="350" y="24" font-family="'Inter', sans-serif" font-size="10" font-weight="600" fill="rgba(255, 255, 255, 0.2)" text-anchor="middle">P-105</text>
    <rect x="400" y="0" width="60" height="40" rx="3" fill="#172721" stroke="rgba(255, 255, 255, 0.05)" stroke-width="1"/>
    <text x="430" y="24" font-family="'Inter', sans-serif" font-size="10" font-weight="600" fill="rgba(255, 255, 255, 0.2)" text-anchor="middle">P-106</text>
    <rect x="480" y="0" width="60" height="40" rx="3" fill="#172721" stroke="rgba(255, 255, 255, 0.05)" stroke-width="1"/>
    <text x="510" y="24" font-family="'Inter', sans-serif" font-size="10" font-weight="600" fill="rgba(255, 255, 255, 0.2)" text-anchor="middle">P-107</text>
    <rect x="0" y="60" width="60" height="40" rx="3" fill="#172721" stroke="rgba(255, 255, 255, 0.05)" stroke-width="1"/>
    <text x="30" y="84" font-family="'Inter', sans-serif" font-size="10" font-weight="600" fill="rgba(255, 255, 255, 0.2)" text-anchor="middle">P-111</text>
    <rect x="80" y="60" width="60" height="40" rx="3" fill="#172721" stroke="rgba(255, 255, 255, 0.05)" stroke-width="1"/>
    <text x="110" y="84" font-family="'Inter', sans-serif" font-size="10" font-weight="600" fill="rgba(255, 255, 255, 0.2)" text-anchor="middle">P-112</text>
    <rect x="160" y="60" width="60" height="40" rx="3" fill="#172721" stroke="rgba(255, 255, 255, 0.05)" stroke-width="1"/>
    <text x="190" y="84" font-family="'Inter', sans-serif" font-size="10" font-weight="600" fill="rgba(255, 255, 255, 0.2)" text-anchor="middle">P-113</text>
    <rect x="240" y="60" width="60" height="40" rx="3" fill="#172721" stroke="rgba(255, 255, 255, 0.05)" stroke-width="1"/>
    <text x="270" y="84" font-family="'Inter', sans-serif" font-size="10" font-weight="600" fill="rgba(255, 255, 255, 0.2)" text-anchor="middle">P-114</text>
    <rect x="320" y="60" width="60" height="40" rx="3" fill="#172721" stroke="rgba(255, 255, 255, 0.05)" stroke-width="1"/>
    <text x="350" y="84" font-family="'Inter', sans-serif" font-size="10" font-weight="600" fill="rgba(255, 255, 255, 0.2)" text-anchor="middle">P-115</text>
    <rect x="400" y="60" width="60" height="40" rx="3" fill="#172721" stroke="rgba(255, 255, 255, 0.05)" stroke-width="1"/>
    <text x="430" y="84" font-family="'Inter', sans-serif" font-size="10" font-weight="600" fill="rgba(255, 255, 255, 0.2)" text-anchor="middle">P-116</text>
    <rect x="480" y="60" width="60" height="40" rx="3" fill="#172721" stroke="rgba(255, 255, 255, 0.05)" stroke-width="1"/>
    <text x="510" y="84" font-family="'Inter', sans-serif" font-size="10" font-weight="600" fill="rgba(255, 255, 255, 0.2)" text-anchor="middle">P-117</text>
    <rect x="0" y="120" width="60" height="40" rx="3" fill="#172721" stroke="rgba(255, 255, 255, 0.05)" stroke-width="1"/>
    <text x="30" y="144" font-family="'Inter', sans-serif" font-size="10" font-weight="600" fill="rgba(255, 255, 255, 0.2)" text-anchor="middle">P-121</text>
    <rect x="80" y="120" width="60" height="40" rx="3" fill="#172721" stroke="rgba(255, 255, 255, 0.05)" stroke-width="1"/>
    <text x="110" y="144" font-family="'Inter', sans-serif" font-size="10" font-weight="600" fill="rgba(255, 255, 255, 0.2)" text-anchor="middle">P-122</text>
    <rect x="160" y="120" width="60" height="40" rx="3" fill="#172721" stroke="rgba(255, 255, 255, 0.05)" stroke-width="1"/>
    <text x="190" y="144" font-family="'Inter', sans-serif" font-size="10" font-weight="600" fill="rgba(255, 255, 255, 0.2)" text-anchor="middle">P-123</text>
    <rect x="240" y="120" width="60" height="40" rx="3" fill="#172721" stroke="rgba(255, 255, 255, 0.05)" stroke-width="1"/>
    <text x="270" y="144" font-family="'Inter', sans-serif" font-size="10" font-weight="600" fill="rgba(255, 255, 255, 0.2)" text-anchor="middle">P-124</text>
    <rect x="320" y="120" width="60" height="40" rx="3" fill="#172721" stroke="rgba(255, 255, 255, 0.05)" stroke-width="1"/>
    <text x="350" y="144" font-family="'Inter', sans-serif" font-size="10" font-weight="600" fill="rgba(255, 255, 255, 0.2)" text-anchor="middle">P-125</text>
    <rect x="400" y="120" width="60" height="40" rx="3" fill="#172721" stroke="rgba(255, 255, 255, 0.05)" stroke-width="1"/>
    <text x="430" y="144" font-family="'Inter', sans-serif" font-size="10" font-weight="600" fill="rgba(255, 255, 255, 0.2)" text-anchor="middle">P-126</text>
    <rect x="480" y="120" width="60" height="40" rx="3" fill="#172721" stroke="rgba(255, 255, 255, 0.05)" stroke-width="1"/>
    <text x="510" y="144" font-family="'Inter', sans-serif" font-size="10" font-weight="600" fill="rgba(255, 255, 255, 0.2)" text-anchor="middle">P-127</text>
    <rect x="0" y="180" width="60" height="40" rx="3" fill="#172721" stroke="rgba(255, 255, 255, 0.05)" stroke-width="1"/>
    <text x="30" y="204" font-family="'Inter', sans-serif" font-size="10" font-weight="600" fill="rgba(255, 255, 255, 0.2)" text-anchor="middle">P-131</text>
    <rect x="80" y="180" width="60" height="40" rx="3" fill="#172721" stroke="rgba(255, 255, 255, 0.05)" stroke-width="1"/>
    <text x="110" y="204" font-family="'Inter', sans-serif" font-size="10" font-weight="600" fill="rgba(255, 255, 255, 0.2)" text-anchor="middle">P-132</text>
    <rect x="160" y="180" width="60" height="40" rx="3" fill="#172721" stroke="rgba(255, 255, 255, 0.05)" stroke-width="1"/>
    <text x="190" y="204" font-family="'Inter', sans-serif" font-size="10" font-weight="600" fill="rgba(255, 255, 255, 0.2)" text-anchor="middle">P-133</text>
    <rect x="240" y="180" width="60" height="40" rx="3" fill="#172721" stroke="rgba(255, 255, 255, 0.05)" stroke-width="1"/>
    <text x="270" y="204" font-family="'Inter', sans-serif" font-size="10" font-weight="600" fill="rgba(255, 255, 255, 0.2)" text-anchor="middle">P-134</text>
    <rect x="320" y="180" width="60" height="40" rx="3" fill="#172721" stroke="rgba(255, 255, 255, 0.05)" stroke-width="1"/>
    <text x="350" y="204" font-family="'Inter', sans-serif" font-size="10" font-weight="600" fill="rgba(255, 255, 255, 0.2)" text-anchor="middle">P-135</text>
    <rect x="400" y="180" width="60" height="40" rx="3" fill="#172721" stroke="rgba(255, 255, 255, 0.05)" stroke-width="1"/>
    <text x="430" y="204" font-family="'Inter', sans-serif" font-size="10" font-weight="600" fill="rgba(255, 255, 255, 0.2)" text-anchor="middle">P-136</text>
    <rect x="480" y="180" width="60" height="40" rx="3" fill="#172721" stroke="rgba(255, 255, 255, 0.05)" stroke-width="1"/>
    <text x="510" y="204" font-family="'Inter', sans-serif" font-size="10" font-weight="600" fill="rgba(255, 255, 255, 0.2)" text-anchor="middle">P-137</text>
    <rect x="-10" y="42" width="520" height="16" fill="rgba(193, 154, 79, 0.04)"/>
    <text x="250" y="53" font-family="'Inter', sans-serif" font-size="9" fill="rgba(193, 154, 79, 0.3)" font-weight="500" letter-spacing="2">12M WIDE SECTOR ROAD</text>
    
    <rect x="-10" y="102" width="520" height="16" fill="rgba(193, 154, 79, 0.04)"/>
    <text x="250" y="113" font-family="'Inter', sans-serif" font-size="9" fill="rgba(193, 154, 79, 0.3)" font-weight="500" letter-spacing="2">12M WIDE SECTOR ROAD</text>
  </g>
  
  <text x="35" y="48" font-family="'Outfit', sans-serif" font-size="16" font-weight="800" fill="#c19a4f" letter-spacing="1.5">BPTP K BLOCK</text>
  <text x="35" y="65" font-family="'Inter', sans-serif" font-size="10" font-weight="500" fill="#668276">Sector 84, Faridabad • PLOTTED LAYOUT</text>
  
  <g transform="translate(350, 38)">
    <circle cx="10" cy="10" r="4" fill="#1b3b2b" stroke="#c19a4f" stroke-width="1"/>
    <text x="20" y="13" font-family="'Inter', sans-serif" font-size="9" fill="#93b0a2">Available</text>
    
    <circle cx="85" cy="10" r="4" fill="#2d1e0d" stroke="rgba(193, 154, 79, 0.6)" stroke-width="1"/>
    <text x="95" y="13" font-family="'Inter', sans-serif" font-size="9" fill="#93b0a2">Registry Open</text>
    
    <circle cx="170" cy="10" r="4" fill="#172721" stroke="rgba(255, 255, 255, 0.08)" stroke-width="1"/>
    <text x="180" y="13" font-family="'Inter', sans-serif" font-size="9" fill="#93b0a2">Sold Out</text>
  </g>

  <g transform="translate(540, 48)" opacity="0.6">
    <circle cx="0" cy="0" r="14" fill="none" stroke="#c19a4f" stroke-width="1" stroke-dasharray="2 2"/>
    <line x1="0" y1="-18" x2="0" y2="18" stroke="#c19a4f" stroke-width="1"/>
    <line x1="-18" y1="0" x2="18" y2="0" stroke="#c19a4f" stroke-width="1"/>
    <polygon points="0,-18 -4,-6 4,-6" fill="#c19a4f"/>
    <text x="0" y="-22" font-family="'Outfit', sans-serif" font-size="8" font-weight="800" fill="#c19a4f" text-anchor="middle">N</text>
  </g>
</svg>
