<svg xmlns="http://www.w3.org/2000/svg" viewBox="0 0 800 500" width="100%" height="100%">
  <defs>
    <linearGradient id="sky" x1="0" y1="0" x2="0" y2="1">
      <stop offset="0%" stop-color="#0d2a1a"/>
      <stop offset="100%" stop-color="#1b4a2e"/>
    </linearGradient>
    <linearGradient id="bldg" x1="0" y1="0" x2="0" y2="1">
      <stop offset="0%" stop-color="#1e3d2c"/>
      <stop offset="100%" stop-color="#0e2118"/>
    </linearGradient>
    <linearGradient id="gold" x1="0" y1="0" x2="1" y2="0">
      <stop offset="0%" stop-color="#c19a4f"/>
      <stop offset="100%" stop-color="#e8c97a"/>
    </linearGradient>
    <filter id="glow">
      <feGaussianBlur stdDeviation="3" result="blur"/>
      <feMerge><feMergeNode in="blur"/><feMergeNode in="SourceGraphic"/></feMerge>
    </filter>
  </defs>

  <!-- Sky -->
  <rect width="800" height="500" fill="url(#sky)"/>

  <!-- Stars/dots -->
  <circle cx="100" cy="40" r="1.5" fill="#c19a4f" opacity="0.4"/>
  <circle cx="250" cy="25" r="1" fill="#c19a4f" opacity="0.3"/>
  <circle cx="600" cy="60" r="1.5" fill="#fff" opacity="0.2"/>
  <circle cx="720" cy="30" r="1" fill="#c19a4f" opacity="0.3"/>

  <!-- Ground -->
  <rect x="0" y="420" width="800" height="80" fill="#0a1f13"/>

  <!-- Road -->
  <rect x="0" y="430" width="800" height="30" fill="#0e2118"/>
  <rect x="150" y="444" width="80" height="4" fill="rgba(193,154,79,0.2)" rx="2"/>
  <rect x="370" y="444" width="80" height="4" fill="rgba(193,154,79,0.2)" rx="2"/>
  <rect x="590" y="444" width="80" height="4" fill="rgba(193,154,79,0.2)" rx="2"/>

  <!-- Landscaping trees left -->
  <ellipse cx="60" cy="415" rx="28" ry="45" fill="#143d22"/>
  <ellipse cx="60" cy="385" rx="22" ry="38" fill="#1b5230"/>
  <rect x="55" y="415" width="10" height="15" fill="#0a2010"/>

  <ellipse cx="120" cy="420" rx="22" ry="36" fill="#143d22"/>
  <ellipse cx="120" cy="395" rx="18" ry="30" fill="#1b5230"/>
  <rect x="115" y="420" width="10" height="10" fill="#0a2010"/>

  <!-- Main Building Tower Left -->
  <rect x="190" y="140" width="150" height="290" fill="url(#bldg)" rx="3"/>
  <!-- Windows left tower -->
  <g fill="rgba(193,154,79,0.15)" stroke="rgba(193,154,79,0.3)" stroke-width="0.5">
    <rect x="205" y="160" width="22" height="16" rx="1"/>
    <rect x="235" y="160" width="22" height="16" rx="1"/>
    <rect x="265" y="160" width="22" height="16" rx="1"/>
    <rect x="295" y="160" width="22" height="16" rx="1"/>
    <rect x="205" y="185" width="22" height="16" rx="1"/>
    <rect x="235" y="185" width="22" height="16" rx="1"/>
    <rect x="265" y="185" width="22" height="16" rx="1"/>
    <rect x="295" y="185" width="22" height="16" rx="1"/>
    <rect x="205" y="210" width="22" height="16" rx="1"/>
    <rect x="235" y="210" width="22" height="16" rx="1"/>
    <rect x="265" y="210" width="22" height="16" rx="1"/>
    <rect x="295" y="210" width="22" height="16" rx="1"/>
    <rect x="205" y="235" width="22" height="16" rx="1"/>
    <rect x="235" y="235" width="22" height="16" rx="1"/>
    <rect x="265" y="235" width="22" height="16" rx="1"/>
    <rect x="295" y="235" width="22" height="16" rx="1"/>
    <rect x="205" y="260" width="22" height="16" rx="1" fill="rgba(255,230,100,0.3)"/>
    <rect x="235" y="260" width="22" height="16" rx="1"/>
    <rect x="265" y="260" width="22" height="16" rx="1" fill="rgba(255,230,100,0.2)"/>
    <rect x="295" y="260" width="22" height="16" rx="1"/>
    <rect x="205" y="285" width="22" height="16" rx="1"/>
    <rect x="235" y="285" width="22" height="16" rx="1" fill="rgba(255,230,100,0.25)"/>
    <rect x="265" y="285" width="22" height="16" rx="1"/>
    <rect x="295" y="285" width="22" height="16" rx="1"/>
    <rect x="205" y="310" width="22" height="16" rx="1"/>
    <rect x="235" y="310" width="22" height="16" rx="1"/>
    <rect x="265" y="310" width="22" height="16" rx="1" fill="rgba(255,230,100,0.2)"/>
    <rect x="295" y="310" width="22" height="16" rx="1"/>
    <rect x="205" y="335" width="22" height="16" rx="1" fill="rgba(255,230,100,0.3)"/>
    <rect x="235" y="335" width="22" height="16" rx="1"/>
    <rect x="265" y="335" width="22" height="16" rx="1"/>
    <rect x="295" y="335" width="22" height="16" rx="1"/>
  </g>
  <!-- Gold accent stripe left tower -->
  <rect x="190" y="140" width="150" height="4" fill="url(#gold)"/>
  <rect x="190" y="320" width="150" height="2" fill="rgba(193,154,79,0.3)"/>

  <!-- Center Tower (tallest) -->
  <rect x="360" y="80" width="180" height="350" fill="url(#bldg)" rx="3"/>
  <g fill="rgba(193,154,79,0.15)" stroke="rgba(193,154,79,0.3)" stroke-width="0.5">
    <rect x="375" y="100" width="24" height="18" rx="1"/>
    <rect x="407" y="100" width="24" height="18" rx="1"/>
    <rect x="439" y="100" width="24" height="18" rx="1"/>
    <rect x="471" y="100" width="24" height="18" rx="1"/>
    <rect x="503" y="100" width="24" height="18" rx="1"/>
    <rect x="375" y="128" width="24" height="18" rx="1"/>
    <rect x="407" y="128" width="24" height="18" rx="1" fill="rgba(255,230,100,0.3)"/>
    <rect x="439" y="128" width="24" height="18" rx="1"/>
    <rect x="471" y="128" width="24" height="18" rx="1"/>
    <rect x="503" y="128" width="24" height="18" rx="1" fill="rgba(255,230,100,0.2)"/>
    <rect x="375" y="156" width="24" height="18" rx="1"/>
    <rect x="407" y="156" width="24" height="18" rx="1"/>
    <rect x="439" y="156" width="24" height="18" rx="1" fill="rgba(255,230,100,0.25)"/>
    <rect x="471" y="156" width="24" height="18" rx="1"/>
    <rect x="503" y="156" width="24" height="18" rx="1"/>
    <rect x="375" y="184" width="24" height="18" rx="1" fill="rgba(255,230,100,0.3)"/>
    <rect x="407" y="184" width="24" height="18" rx="1"/>
    <rect x="439" y="184" width="24" height="18" rx="1"/>
    <rect x="471" y="184" width="24" height="18" rx="1" fill="rgba(255,230,100,0.2)"/>
    <rect x="503" y="184" width="24" height="18" rx="1"/>
    <rect x="375" y="212" width="24" height="18" rx="1"/>
    <rect x="407" y="212" width="24" height="18" rx="1" fill="rgba(255,230,100,0.3)"/>
    <rect x="439" y="212" width="24" height="18" rx="1"/>
    <rect x="471" y="212" width="24" height="18" rx="1"/>
    <rect x="503" y="212" width="24" height="18" rx="1"/>
    <rect x="375" y="240" width="24" height="18" rx="1"/>
    <rect x="407" y="240" width="24" height="18" rx="1"/>
    <rect x="439" y="240" width="24" height="18" rx="1" fill="rgba(255,230,100,0.25)"/>
    <rect x="471" y="240" width="24" height="18" rx="1"/>
    <rect x="503" y="240" width="24" height="18" rx="1"/>
    <rect x="375" y="268" width="24" height="18" rx="1" fill="rgba(255,230,100,0.2)"/>
    <rect x="407" y="268" width="24" height="18" rx="1"/>
    <rect x="439" y="268" width="24" height="18" rx="1"/>
    <rect x="471" y="268" width="24" height="18" rx="1" fill="rgba(255,230,100,0.3)"/>
    <rect x="503" y="268" width="24" height="18" rx="1"/>
    <rect x="375" y="296" width="24" height="18" rx="1"/>
    <rect x="407" y="296" width="24" height="18" rx="1"/>
    <rect x="439" y="296" width="24" height="18" rx="1"/>
    <rect x="471" y="296" width="24" height="18" rx="1"/>
    <rect x="503" y="296" width="24" height="18" rx="1" fill="rgba(255,230,100,0.2)"/>
    <rect x="375" y="324" width="24" height="18" rx="1"/>
    <rect x="407" y="324" width="24" height="18" rx="1" fill="rgba(255,230,100,0.3)"/>
    <rect x="439" y="324" width="24" height="18" rx="1"/>
    <rect x="471" y="324" width="24" height="18" rx="1"/>
    <rect x="503" y="324" width="24" height="18" rx="1"/>
  </g>
  <rect x="360" y="80" width="180" height="5" fill="url(#gold)"/>
  <rect x="360" y="350" width="180" height="2" fill="rgba(193,154,79,0.3)"/>

  <!-- Right Tower -->
  <rect x="560" y="160" width="140" height="270" fill="url(#bldg)" rx="3"/>
  <g fill="rgba(193,154,79,0.15)" stroke="rgba(193,154,79,0.3)" stroke-width="0.5">
    <rect x="573" y="178" width="22" height="16" rx="1"/>
    <rect x="601" y="178" width="22" height="16" rx="1"/>
    <rect x="629" y="178" width="22" height="16" rx="1"/>
    <rect x="657" y="178" width="22" height="16" rx="1" fill="rgba(255,230,100,0.3)"/>
    <rect x="573" y="202" width="22" height="16" rx="1"/>
    <rect x="601" y="202" width="22" height="16" rx="1" fill="rgba(255,230,100,0.25)"/>
    <rect x="629" y="202" width="22" height="16" rx="1"/>
    <rect x="657" y="202" width="22" height="16" rx="1"/>
    <rect x="573" y="226" width="22" height="16" rx="1"/>
    <rect x="601" y="226" width="22" height="16" rx="1"/>
    <rect x="629" y="226" width="22" height="16" rx="1" fill="rgba(255,230,100,0.2)"/>
    <rect x="657" y="226" width="22" height="16" rx="1"/>
    <rect x="573" y="250" width="22" height="16" rx="1" fill="rgba(255,230,100,0.3)"/>
    <rect x="601" y="250" width="22" height="16" rx="1"/>
    <rect x="629" y="250" width="22" height="16" rx="1"/>
    <rect x="657" y="250" width="22" height="16" rx="1"/>
    <rect x="573" y="274" width="22" height="16" rx="1"/>
    <rect x="601" y="274" width="22" height="16" rx="1"/>
    <rect x="629" y="274" width="22" height="16" rx="1" fill="rgba(255,230,100,0.25)"/>
    <rect x="657" y="274" width="22" height="16" rx="1"/>
    <rect x="573" y="298" width="22" height="16" rx="1"/>
    <rect x="601" y="298" width="22" height="16" rx="1" fill="rgba(255,230,100,0.2)"/>
    <rect x="629" y="298" width="22" height="16" rx="1"/>
    <rect x="657" y="298" width="22" height="16" rx="1"/>
    <rect x="573" y="322" width="22" height="16" rx="1"/>
    <rect x="601" y="322" width="22" height="16" rx="1"/>
    <rect x="629" y="322" width="22" height="16" rx="1"/>
    <rect x="657" y="322" width="22" height="16" rx="1" fill="rgba(255,230,100,0.3)"/>
    <rect x="573" y="346" width="22" height="16" rx="1"/>
    <rect x="601" y="346" width="22" height="16" rx="1"/>
    <rect x="629" y="346" width="22" height="16" rx="1" fill="rgba(255,230,100,0.2)"/>
    <rect x="657" y="346" width="22" height="16" rx="1"/>
  </g>
  <rect x="560" y="160" width="140" height="4" fill="url(#gold)"/>

  <!-- Entrance Gate -->
  <rect x="355" y="385" width="190" height="45" fill="#0a1a10"/>
  <rect x="355" y="383" width="190" height="4" fill="url(#gold)"/>
  <!-- Gate pillars -->
  <rect x="355" y="355" width="22" height="75" fill="#1b3325" rx="2"/>
  <rect x="523" y="355" width="22" height="75" fill="#1b3325" rx="2"/>
  <!-- Gate pillar caps -->
  <rect x="350" y="350" width="32" height="8" fill="#c19a4f" rx="2"/>
  <rect x="518" y="350" width="32" height="8" fill="#c19a4f" rx="2"/>
  <!-- Project name board -->
  <rect x="390" y="395" width="120" height="28" fill="#0e1f14" rx="2" stroke="#c19a4f" stroke-width="1"/>
  <text x="450" y="413" font-family="'Outfit', sans-serif" font-size="11" font-weight="700" fill="#c19a4f" text-anchor="middle" letter-spacing="1">S3 GREEN AVENUE</text>

  <!-- Landscaping trees right -->
  <ellipse cx="730" cy="415" rx="28" ry="45" fill="#143d22"/>
  <ellipse cx="730" cy="385" rx="22" ry="38" fill="#1b5230"/>
  <rect x="725" y="415" width="10" height="15" fill="#0a2010"/>
  <ellipse cx="770" cy="420" rx="22" ry="36" fill="#143d22"/>
  <ellipse cx="770" cy="395" rx="18" ry="30" fill="#1b5230"/>
  <rect x="765" y="420" width="10" height="10" fill="#0a2010"/>

  <!-- Foreground lawn -->
  <ellipse cx="400" cy="430" rx="120" ry="12" fill="#0e2a18" opacity="0.5"/>

  <!-- Glow light at gate top -->
  <circle cx="450" cy="383" r="8" fill="rgba(193,154,79,0.2)" filter="url(#glow)"/>

  <!-- Project name top left -->
  <text x="30" y="38" font-family="'Outfit', sans-serif" font-size="14" font-weight="800" fill="#c19a4f" letter-spacing="2" opacity="0.7">S3 GREEN AVENUE</text>
  <text x="30" y="55" font-family="'Inter', sans-serif" font-size="10" fill="#668276" letter-spacing="1">SECTOR 85, FARIDABAD</text>
</svg>
